<svg width="16" height="18" viewBox="0 0 16 18" fill="none" xmlns="http://www.w3.org/2000/svg">
<path d="M12.8796 17.0713C11.9104 18.0012 10.8522 17.8543 9.83351 17.4139C8.75552 16.9636 7.76653 16.9441 6.6292 17.4139C5.20507 18.0207 4.45344 17.8445 3.60291 17.0713C-1.22333 12.148 -0.511261 4.65039 4.96771 4.37632C6.30284 4.44484 7.23248 5.10063 8.01378 5.15936C9.18078 4.92445 10.2983 4.24908 11.5445 4.33717C13.0378 4.45463 14.1653 5.0419 14.907 6.099C11.8214 7.92935 12.5532 11.9522 15.3817 13.0778C14.818 14.546 14.0861 16.0044 12.8697 17.0811L12.8796 17.0713ZM7.91488 4.3176C7.76654 2.13488 9.5566 0.333898 11.6137 0.157715C11.9005 2.68301 9.29946 4.56229 7.91488 4.3176Z" fill="white"/>
</svg>
