<svg width="60" height="60" viewBox="0 0 60 60" fill="none" xmlns="http://www.w3.org/2000/svg">
<circle cx="30" cy="30" r="30" fill="white"/>
<circle cx="30" cy="30" r="29" stroke="#303030" stroke-opacity="0.7" stroke-width="2"/>
<g clip-path="url(#clip0_50_174)">
<path d="M38.2105 21.6289H21.7895C20.7844 21.6289 19.8206 21.9616 19.1099 22.5538C18.3992 23.1461 18 23.9493 18 24.7868V34.2605C18 35.098 18.3992 35.9012 19.1099 36.4935C19.8206 37.0857 20.7844 37.4184 21.7895 37.4184H27.5874L32.2611 41.3236C32.4884 41.5131 32.8042 41.6289 33.1579 41.6289C33.4929 41.6289 33.8142 41.518 34.0511 41.3206C34.288 41.1232 34.4211 40.8554 34.4211 40.5763V37.4184H38.2105C39.2156 37.4184 40.1794 37.0857 40.8901 36.4935C41.6008 35.9012 42 35.098 42 34.2605V24.7868C42 23.9493 41.6008 23.1461 40.8901 22.5538C40.1794 21.9616 39.2156 21.6289 38.2105 21.6289ZM21.7895 22.6815H38.2105C38.8805 22.6815 39.5231 22.9033 39.9969 23.2982C40.4707 23.693 40.7368 24.2285 40.7368 24.7868V34.2605C40.7368 34.8188 40.4707 35.3543 39.9969 35.7491C39.5231 36.1439 38.8805 36.3657 38.2105 36.3657H33.1579V40.5763L28.1053 36.3657H21.7895C21.1195 36.3657 20.4769 36.1439 20.0031 35.7491C19.5293 35.3543 19.2632 34.8188 19.2632 34.2605V24.7868C19.2632 24.2285 19.5293 23.693 20.0031 23.2982C20.4769 22.9033 21.1195 22.6815 21.7895 22.6815Z" fill="#2E2E2E"/>
<circle cx="25" cy="29.127" r="2" fill="#2E2E2E"/>
<circle cx="30" cy="29.127" r="2" fill="#2E2E2E"/>
<circle cx="35" cy="29.127" r="2" fill="#2E2E2E"/>
</g>
<defs>
<clipPath id="clip0_50_174">
<rect width="24" height="20" fill="white" transform="translate(18 21.6289)"/>
</clipPath>
</defs>
</svg>
