<svg width="21" height="21" viewBox="0 0 21 21" fill="none" xmlns="http://www.w3.org/2000/svg">
<path d="M6.77994 12.0646L6.25782 14.0138L4.34945 14.0542C3.77912 12.9964 3.45563 11.7861 3.45563 10.5C3.45563 9.25628 3.75809 8.08347 4.29422 7.05078H4.29463L5.99362 7.36227L6.73787 9.05105C6.5821 9.50519 6.4972 9.99269 6.4972 10.5C6.49726 11.0505 6.59698 11.578 6.77994 12.0646Z" fill="#FBBB00"/>
<path d="M18.3246 9.09912C18.4107 9.55281 18.4556 10.0214 18.4556 10.5002C18.4556 11.0372 18.3991 11.5609 18.2916 12.0662C17.9265 13.7854 16.9725 15.2866 15.651 16.349L15.6505 16.3486L13.5106 16.2394L13.2077 14.3487C14.0846 13.8344 14.7699 13.0296 15.1309 12.0662H11.1205V9.09912H15.1894H18.3246Z" fill="#518EF8"/>
<path d="M15.6505 16.3486L15.6509 16.349C14.3656 17.3821 12.7329 18.0002 10.9556 18.0002C8.09943 18.0002 5.61619 16.4038 4.34943 14.0545L6.77992 12.0649C7.41329 13.7553 9.04393 14.9586 10.9556 14.9586C11.7773 14.9586 12.5471 14.7365 13.2077 14.3487L15.6505 16.3486Z" fill="#28B446"/>
<path d="M15.7428 4.72664L13.3131 6.71578C12.6294 6.28846 11.8213 6.0416 10.9555 6.0416C9.00058 6.0416 7.33945 7.30011 6.73781 9.05109L4.29454 7.05082H4.29413C5.54235 4.64423 8.0569 3 10.9555 3C12.7753 3 14.4439 3.64822 15.7428 4.72664Z" fill="#F14336"/>
</svg>
